<svg xmlns="http://www.w3.org/2000/svg" width="1920" height="1080"><path d="M-94,-269L523,-302L1198,-355Z" fill="#ceeccf" stroke="#ceeccf" stroke-width="1.51"/><path d="M1192,1394L969,1391L1470,1448Z" fill="#3c83b1" stroke="#3c83b1" stroke-width="1.51"/><path d="M969,1391L496,1441L1470,1448Z" fill="#4e8aab" stroke="#4e8aab" stroke-width="1.51"/><path d="M1738,1428L1470,1448L2120,1420Z" fill="#1765a3" stroke="#1765a3" stroke-width="1.51"/><path d="M1977,1385L1738,1428L2120,1420Z" fill="#0c5ea0" stroke="#0c5ea0" stroke-width="1.51"/><path d="M2145,490L2123,696L2210,941Z" fill="#3e84b1" stroke="#3e84b1" stroke-width="1.51"/><path d="M2210,941L1970,1079L2219,1214Z" fill="#1b6ca8" stroke="#1b6ca8" stroke-width="1.51"/><path d="M1670,-314L1963,-319L2241,-368Z" fill="#92adcb" stroke="#92adcb" stroke-width="1.51"/><path d="M1481,-327L1670,-314L2241,-368Z" fill="#96b7cf" stroke="#96b7cf" stroke-width="1.51"/><path d="M1198,-355L1481,-327L2241,-368Z" fill="#9bc0d3" stroke="#9bc0d3" stroke-width="1.51"/><path d="M1963,-319L2198,-52L2241,-368Z" fill="#89a0bc" stroke="#89a0bc" stroke-width="1.51"/><path d="M2198,-52L1959,162L2252,152Z" fill="#7b9bae" stroke="#7b9bae" stroke-width="1.51"/><path d="M1959,162L2145,490L2252,152Z" fill="#6e97a9" stroke="#6e97a9" stroke-width="1.51"/><path d="M2145,490L2210,941L2252,152Z" fill="#518aa9" stroke="#518aa9" stroke-width="1.51"/><path d="M2241,-368L2198,-52L2252,152Z" fill="#8098af" stroke="#8098af" stroke-width="1.51"/><path d="M2210,941L2219,1214L2252,152Z" fill="#357dae" stroke="#357dae" stroke-width="1.51"/><path d="M1959,162L1896,422L2145,490Z" fill="#689cb2" stroke="#689cb2" stroke-width="1.51"/><path d="M1963,-319L1897,-27L2198,-52Z" fill="#88a6bf" stroke="#88a6bf" stroke-width="1.51"/><path d="M2123,696L1911,852L2210,941Z" fill="#3082b6" stroke="#3082b6" stroke-width="1.51"/><path d="M1977,1385L2120,1420L2219,1214Z" fill="#0a5a9d" stroke="#0a5a9d" stroke-width="1.51"/><path d="M1970,1079L1977,1385L2219,1214Z" fill="#0f66a8" stroke="#0f66a8" stroke-width="1.51"/><path d="M1897,-27L1959,162L2198,-52Z" fill="#82a4b8" stroke="#82a4b8" stroke-width="1.51"/><path d="M1911,852L1970,1079L2210,941Z" fill="#267cb4" stroke="#267cb4" stroke-width="1.51"/><path d="M1937,598L2123,696L2145,490Z" fill="#4c8fb3" stroke="#4c8fb3" stroke-width="1.51"/><path d="M1896,422L1937,598L2145,490Z" fill="#5798b6" stroke="#5798b6" stroke-width="1.51"/><path d="M1937,598L1911,852L2123,696Z" fill="#3e8fbc" stroke="#3e8fbc" stroke-width="1.51"/><path d="M1646,644L1911,852L1937,598Z" fill="#4599c1" stroke="#4599c1" stroke-width="1.51"/><path d="M1678,239L1896,422L1959,162Z" fill="#74a8b6" stroke="#74a8b6" stroke-width="1.51"/><path d="M1691,-132L1897,-27L1963,-319Z" fill="#8db1c6" stroke="#8db1c6" stroke-width="1.51"/><path d="M1670,-314L1691,-132L1963,-319Z" fill="#93b7cc" stroke="#93b7cc" stroke-width="1.51"/><path d="M1911,852L1654,902L1970,1079Z" fill="#2c87bc" stroke="#2c87bc" stroke-width="1.51"/><path d="M1970,1079L1654,1223L1977,1385Z" fill="#1671b0" stroke="#1671b0" stroke-width="1.51"/><path d="M1654,1223L1738,1428L1977,1385Z" fill="#166baa" stroke="#166baa" stroke-width="1.51"/><path d="M1654,902L1654,1223L1970,1079Z" fill="#2582b9" stroke="#2582b9" stroke-width="1.51"/><path d="M1897,-27L1678,239L1959,162Z" fill="#7facbb" stroke="#7facbb" stroke-width="1.51"/><path d="M1896,422L1706,486L1937,598Z" fill="#5ba1bb" stroke="#5ba1bb" stroke-width="1.51"/><path d="M1706,486L1646,644L1937,598Z" fill="#54a2bf" stroke="#54a2bf" stroke-width="1.51"/><path d="M1678,239L1706,486L1896,422Z" fill="#6aa9b9" stroke="#6aa9b9" stroke-width="1.51"/><path d="M1691,-132L1678,239L1897,-27Z" fill="#88b4c1" stroke="#88b4c1" stroke-width="1.51"/><path d="M1646,644L1654,902L1911,852Z" fill="#3a99c5" stroke="#3a99c5" stroke-width="1.51"/><path d="M-94,-269L152,-254L523,-302Z" fill="#ddf2d6" stroke="#ddf2d6" stroke-width="1.51"/><path d="M1435,1195L1654,1223L1654,902Z" fill="#2a89bd" stroke="#2a89bd" stroke-width="1.51"/><path d="M1484,132L1678,239L1691,-132Z" fill="#88bac2" stroke="#88bac2" stroke-width="1.51"/><path d="M1487,-93L1484,132L1691,-132Z" fill="#90c0c8" stroke="#90c0c8" stroke-width="1.51"/><path d="M1678,239L1477,359L1706,486Z" fill="#70b2bd" stroke="#70b2bd" stroke-width="1.51"/><path d="M1654,1223L1470,1448L1738,1428Z" fill="#1f73ad" stroke="#1f73ad" stroke-width="1.51"/><path d="M1435,689L1450,866L1646,644Z" fill="#4ba9cb" stroke="#4ba9cb" stroke-width="1.51"/><path d="M1646,644L1450,866L1654,902Z" fill="#3fa1c9" stroke="#3fa1c9" stroke-width="1.51"/><path d="M1450,866L1435,1195L1654,902Z" fill="#3696c4" stroke="#3696c4" stroke-width="1.51"/><path d="M1481,-327L1487,-93L1670,-314Z" fill="#99c4d2" stroke="#99c4d2" stroke-width="1.51"/><path d="M1670,-314L1487,-93L1691,-132Z" fill="#94bfcd" stroke="#94bfcd" stroke-width="1.51"/><path d="M1477,359L1646,644L1706,486Z" fill="#61aec1" stroke="#61aec1" stroke-width="1.51"/><path d="M1477,359L1435,689L1646,644Z" fill="#5cb1c6" stroke="#5cb1c6" stroke-width="1.51"/><path d="M1435,1195L1470,1448L1654,1223Z" fill="#277fb8" stroke="#277fb8" stroke-width="1.51"/><path d="M1484,132L1477,359L1678,239Z" fill="#7ebabe" stroke="#7ebabe" stroke-width="1.51"/><path d="M523,-302L666,-252L1198,-355Z" fill="#bfe6d0" stroke="#bfe6d0" stroke-width="1.51"/><path d="M1273,963L1435,1195L1450,866Z" fill="#3b9cc7" stroke="#3b9cc7" stroke-width="1.51"/><path d="M1435,1195L1227,1228L1470,1448Z" fill="#3087bc" stroke="#3087bc" stroke-width="1.51"/><path d="M1227,1228L1192,1394L1470,1448Z" fill="#3485b8" stroke="#3485b8" stroke-width="1.51"/><path d="M1266,387L1435,689L1477,359Z" fill="#6bbcc7" stroke="#6bbcc7" stroke-width="1.51"/><path d="M1238,207L1266,387L1477,359Z" fill="#7fc5c4" stroke="#7fc5c4" stroke-width="1.51"/><path d="M1198,-355L1264,-147L1481,-327Z" fill="#a4d3da" stroke="#a4d3da" stroke-width="1.51"/><path d="M1238,207L1477,359L1484,132Z" fill="#84c3c4" stroke="#84c3c4" stroke-width="1.51"/><path d="M1264,-147L1238,207L1484,132Z" fill="#94cccb" stroke="#94cccb" stroke-width="1.51"/><path d="M1264,-147L1484,132L1487,-93Z" fill="#95c9cd" stroke="#95c9cd" stroke-width="1.51"/><path d="M1481,-327L1264,-147L1487,-93Z" fill="#9cccd4" stroke="#9cccd4" stroke-width="1.51"/><path d="M666,-252L942,-246L1198,-355Z" fill="#b6e2d3" stroke="#b6e2d3" stroke-width="1.51"/><path d="M1266,387L1132,735L1435,689Z" fill="#62bccd" stroke="#62bccd" stroke-width="1.51"/><path d="M1273,963L1227,1228L1435,1195Z" fill="#3a97c5" stroke="#3a97c5" stroke-width="1.51"/><path d="M1435,689L1132,735L1450,866Z" fill="#4fb1d1" stroke="#4fb1d1" stroke-width="1.51"/><path d="M1132,735L1273,963L1450,866Z" fill="#4baed0" stroke="#4baed0" stroke-width="1.51"/><path d="M753,1355L496,1441L969,1391Z" fill="#6393aa" stroke="#6393aa" stroke-width="1.51"/><path d="M980,-88L980,143L1238,207Z" fill="#9fd6c6" stroke="#9fd6c6" stroke-width="1.51"/><path d="M1198,-355L942,-246L1264,-147Z" fill="#aadad6" stroke="#aadad6" stroke-width="1.51"/><path d="M942,-246L980,-88L1264,-147Z" fill="#aadbd1" stroke="#aadbd1" stroke-width="1.51"/><path d="M980,-88L1238,207L1264,-147Z" fill="#9fd5cc" stroke="#9fd5cc" stroke-width="1.51"/><path d="M1238,207L884,374L1266,387Z" fill="#88cdc2" stroke="#88cdc2" stroke-width="1.51"/><path d="M884,374L1016,669L1266,387Z" fill="#7dcac4" stroke="#7dcac4" stroke-width="1.51"/><path d="M1016,669L1132,735L1266,387Z" fill="#6cc2ca" stroke="#6cc2ca" stroke-width="1.51"/><path d="M1132,735L912,834L1273,963Z" fill="#5ab5cd" stroke="#5ab5cd" stroke-width="1.51"/><path d="M912,834L956,1181L1273,963Z" fill="#56abc5" stroke="#56abc5" stroke-width="1.51"/><path d="M956,1181L1227,1228L1273,963Z" fill="#489dc2" stroke="#489dc2" stroke-width="1.51"/><path d="M980,143L884,374L1238,207Z" fill="#94d3c0" stroke="#94d3c0" stroke-width="1.51"/><path d="M969,1391L1192,1394L1227,1228Z" fill="#448db7" stroke="#448db7" stroke-width="1.51"/><path d="M956,1181L969,1391L1227,1228Z" fill="#4c96bb" stroke="#4c96bb" stroke-width="1.51"/><path d="M198,1399L-84,1447L496,1441Z" fill="#7f9aaf" stroke="#7f9aaf" stroke-width="1.51"/><path d="M1016,669L912,834L1132,735Z" fill="#67bfcc" stroke="#67bfcc" stroke-width="1.51"/><path d="M912,834L759,845L956,1181Z" fill="#66b3c3" stroke="#66b3c3" stroke-width="1.51"/><path d="M723,-113L980,143L980,-88Z" fill="#addec6" stroke="#addec6" stroke-width="1.51"/><path d="M675,601L912,834L1016,669Z" fill="#76c6c7" stroke="#76c6c7" stroke-width="1.51"/><path d="M884,374L675,601L1016,669Z" fill="#82cec3" stroke="#82cec3" stroke-width="1.51"/><path d="M717,398L675,601L884,374Z" fill="#92d4bd" stroke="#92d4bd" stroke-width="1.51"/><path d="M675,601L759,845L912,834Z" fill="#78c5c7" stroke="#78c5c7" stroke-width="1.51"/><path d="M759,845L697,1201L956,1181Z" fill="#67abbd" stroke="#67abbd" stroke-width="1.51"/><path d="M956,1181L753,1355L969,1391Z" fill="#5896b4" stroke="#5896b4" stroke-width="1.51"/><path d="M652,179L884,374L980,143Z" fill="#a0d9bc" stroke="#a0d9bc" stroke-width="1.51"/><path d="M723,-113L652,179L980,143Z" fill="#afe0c0" stroke="#afe0c0" stroke-width="1.51"/><path d="M942,-246L723,-113L980,-88Z" fill="#b3e1cc" stroke="#b3e1cc" stroke-width="1.51"/><path d="M697,1201L753,1355L956,1181Z" fill="#629eb6" stroke="#629eb6" stroke-width="1.51"/><path d="M666,-252L723,-113L942,-246Z" fill="#bce4cc" stroke="#bce4cc" stroke-width="1.51"/><path d="M652,179L717,398L884,374Z" fill="#9ed8b9" stroke="#9ed8b9" stroke-width="1.51"/><path d="M492,869L462,1173L697,1201Z" fill="#79b1ba" stroke="#79b1ba" stroke-width="1.51"/><path d="M463,-93L652,179L723,-113Z" fill="#bde5bf" stroke="#bde5bf" stroke-width="1.51"/><path d="M675,601L506,687L759,845Z" fill="#86cbc3" stroke="#86cbc3" stroke-width="1.51"/><path d="M506,687L492,869L759,845Z" fill="#84c8c5" stroke="#84c8c5" stroke-width="1.51"/><path d="M492,869L697,1201L759,845Z" fill="#78b8bd" stroke="#78b8bd" stroke-width="1.51"/><path d="M697,1201L496,1441L753,1355Z" fill="#6c9aad" stroke="#6c9aad" stroke-width="1.51"/><path d="M455,221L472,413L652,179Z" fill="#afdfb8" stroke="#afdfb8" stroke-width="1.51"/><path d="M462,1173L496,1441L697,1201Z" fill="#73a1b3" stroke="#73a1b3" stroke-width="1.51"/><path d="M472,413L675,601L717,398Z" fill="#99d7bb" stroke="#99d7bb" stroke-width="1.51"/><path d="M652,179L472,413L717,398Z" fill="#a6dcb6" stroke="#a6dcb6" stroke-width="1.51"/><path d="M666,-252L463,-93L723,-113Z" fill="#c3e8c6" stroke="#c3e8c6" stroke-width="1.51"/><path d="M463,-93L455,221L652,179Z" fill="#bce5be" stroke="#bce5be" stroke-width="1.51"/><path d="M523,-302L463,-93L666,-252Z" fill="#c9eaca" stroke="#c9eaca" stroke-width="1.51"/><path d="M472,413L506,687L675,601Z" fill="#96d4bf" stroke="#96d4bf" stroke-width="1.51"/><path d="M273,-80L455,221L463,-93Z" fill="#c8e9c4" stroke="#c8e9c4" stroke-width="1.51"/><path d="M258,1108L462,1173L492,869Z" fill="#83b6bf" stroke="#83b6bf" stroke-width="1.51"/><path d="M462,1173L198,1399L496,1441Z" fill="#7b9fb2" stroke="#7b9fb2" stroke-width="1.51"/><path d="M472,413L247,463L506,687Z" fill="#a1d9c1" stroke="#a1d9c1" stroke-width="1.51"/><path d="M215,843L492,869L506,687Z" fill="#8fcbc9" stroke="#8fcbc9" stroke-width="1.51"/><path d="M273,-80L463,-93L523,-302Z" fill="#ceeccb" stroke="#ceeccb" stroke-width="1.51"/><path d="M152,-254L273,-80L523,-302Z" fill="#d6efd0" stroke="#d6efd0" stroke-width="1.51"/><path d="M215,843L258,1108L492,869Z" fill="#8cc1c5" stroke="#8cc1c5" stroke-width="1.51"/><path d="M247,463L151,671L506,687Z" fill="#a1d7c6" stroke="#a1d7c6" stroke-width="1.51"/><path d="M151,671L215,843L506,687Z" fill="#9ad1cb" stroke="#9ad1cb" stroke-width="1.51"/><path d="M273,-80L176,219L455,221Z" fill="#c6e9c2" stroke="#c6e9c2" stroke-width="1.51"/><path d="M455,221L247,463L472,413Z" fill="#afe0bd" stroke="#afe0bd" stroke-width="1.51"/><path d="M258,1108L198,1399L462,1173Z" fill="#83aabb" stroke="#83aabb" stroke-width="1.51"/><path d="M176,219L247,463L455,221Z" fill="#b9e4bd" stroke="#b9e4bd" stroke-width="1.51"/><path d="M43,-109L11,168L176,219Z" fill="#cfedca" stroke="#cfedca" stroke-width="1.51"/><path d="M176,219L-17,394L247,463Z" fill="#b9e4c4" stroke="#b9e4c4" stroke-width="1.51"/><path d="M-61,1079L198,1399L258,1108Z" fill="#89afc2" stroke="#89afc2" stroke-width="1.51"/><path d="M215,843L-2,912L258,1108Z" fill="#92c2c9" stroke="#92c2c9" stroke-width="1.51"/><path d="M43,-109L176,219L273,-80Z" fill="#d1edcb" stroke="#d1edcb" stroke-width="1.51"/><path d="M152,-254L43,-109L273,-80Z" fill="#d8f0d2" stroke="#d8f0d2" stroke-width="1.51"/><path d="M-2,912L-61,1079L258,1108Z" fill="#90bcc9" stroke="#90bcc9" stroke-width="1.51"/><path d="M-17,394L151,671L247,463Z" fill="#addec9" stroke="#addec9" stroke-width="1.51"/><path d="M-17,394L-26,682L151,671Z" fill="#abdcce" stroke="#abdcce" stroke-width="1.51"/><path d="M-61,1079L-84,1447L198,1399Z" fill="#88a6bf" stroke="#88a6bf" stroke-width="1.51"/><path d="M151,671L-2,912L215,843Z" fill="#9aced1" stroke="#9aced1" stroke-width="1.51"/><path d="M-26,682L-2,912L151,671Z" fill="#a0d3d3" stroke="#a0d3d3" stroke-width="1.51"/><path d="M11,168L-17,394L176,219Z" fill="#c4e8c5" stroke="#c4e8c5" stroke-width="1.51"/><path d="M-217,1227L-84,1447L-61,1079Z" fill="#8eadc7" stroke="#8eadc7" stroke-width="1.51"/><path d="M-94,-269L43,-109L152,-254Z" fill="#def3d8" stroke="#def3d8" stroke-width="1.51"/><path d="M-213,145L-17,394L11,168Z" fill="#caeaca" stroke="#caeaca" stroke-width="1.51"/><path d="M-211,-13L-213,145L11,168Z" fill="#d6efd1" stroke="#d6efd1" stroke-width="1.51"/><path d="M-211,-13L11,168L43,-109Z" fill="#d8f0d1" stroke="#d8f0d1" stroke-width="1.51"/><path d="M-94,-269L-211,-13L43,-109Z" fill="#dff3d9" stroke="#dff3d9" stroke-width="1.51"/><path d="M-209,-242L-211,-13L-94,-269Z" fill="#e3f4dd" stroke="#e3f4dd" stroke-width="1.51"/><path d="M-298,379L-260,734L-26,682Z" fill="#b1ded6" stroke="#b1ded6" stroke-width="1.51"/><path d="M-298,379L-26,682L-17,394Z" fill="#b7e3d0" stroke="#b7e3d0" stroke-width="1.51"/><path d="M-213,145L-298,379L-17,394Z" fill="#c8e9cc" stroke="#c8e9cc" stroke-width="1.51"/><path d="M-26,682L-260,734L-2,912Z" fill="#a2d4d8" stroke="#a2d4d8" stroke-width="1.51"/><path d="M-260,734L-264,913L-2,912Z" fill="#a1ced8" stroke="#a1ced8" stroke-width="1.51"/><path d="M-217,1227L-258,1340L-84,1447Z" fill="#8da6c3" stroke="#8da6c3" stroke-width="1.51"/><path d="M-264,913L-61,1079L-2,912Z" fill="#99c4d2" stroke="#99c4d2" stroke-width="1.51"/><path d="M-264,913L-217,1227L-61,1079Z" fill="#96bcd0" stroke="#96bcd0" stroke-width="1.51"/><path d="M-264,913L-258,1340L-217,1227Z" fill="#95b6ce" stroke="#95b6ce" stroke-width="1.51"/><path d="M-298,379L-213,145L-211,-13Z" fill="#d4eed2" stroke="#d4eed2" stroke-width="1.51"/><path d="M-298,379L-211,-13L-209,-242Z" fill="#ddf2d6" stroke="#ddf2d6" stroke-width="1.51"/><path d="M-264,913L-298,379L-258,1340Z" fill="#a3ceda" stroke="#a3ceda" stroke-width="1.51"/><path d="M-298,379L-264,913L-260,734Z" fill="#afdbdb" stroke="#afdbdb" stroke-width="1.51"/></svg>