<svg xmlns="http://www.w3.org/2000/svg" width="800" height="600"><path d="M-130,1109L-512,1024L220,1194Z" fill="#9b74a9" stroke="#9b74a9" stroke-width="1.51"/><path d="M656,1122L220,1194L1414,1070Z" fill="#7f3d8c" stroke="#7f3d8c" stroke-width="1.51"/><path d="M975,1075L656,1122L1414,1070Z" fill="#812a87" stroke="#812a87" stroke-width="1.51"/><path d="M1414,363L1298,750L1414,1070Z" fill="#803289" stroke="#803289" stroke-width="1.51"/><path d="M537,-520L1012,-413L1464,-416Z" fill="#b696c8" stroke="#b696c8" stroke-width="1.51"/><path d="M895,369L1414,363L1465,-21Z" fill="#8e63a5" stroke="#8e63a5" stroke-width="1.51"/><path d="M941,-156L895,369L1465,-21Z" fill="#967ab5" stroke="#967ab5" stroke-width="1.51"/><path d="M1464,-416L1012,-413L1465,-21Z" fill="#a97db1" stroke="#a97db1" stroke-width="1.51"/><path d="M1012,-413L941,-156L1465,-21Z" fill="#a683b9" stroke="#a683b9" stroke-width="1.51"/><path d="M1414,363L1414,1070L1465,-21Z" fill="#7e488e" stroke="#7e488e" stroke-width="1.51"/><path d="M908,628L1298,750L1414,363Z" fill="#89489a" stroke="#89489a" stroke-width="1.51"/><path d="M895,369L908,628L1414,363Z" fill="#8b5ba7" stroke="#8b5ba7" stroke-width="1.51"/><path d="M1298,750L975,1075L1414,1070Z" fill="#842285" stroke="#842285" stroke-width="1.51"/><path d="M908,628L975,1075L1298,750Z" fill="#883c98" stroke="#883c98" stroke-width="1.51"/><path d="M586,-95L669,392L895,369Z" fill="#9086be" stroke="#9086be" stroke-width="1.51"/><path d="M586,-95L895,369L941,-156Z" fill="#978dc2" stroke="#978dc2" stroke-width="1.51"/><path d="M908,628L656,1122L975,1075Z" fill="#894298" stroke="#894298" stroke-width="1.51"/><path d="M537,-520L941,-156L1012,-413Z" fill="#b19dcb" stroke="#b19dcb" stroke-width="1.51"/><path d="M525,616L656,1122L908,628Z" fill="#8a58a7" stroke="#8a58a7" stroke-width="1.51"/><path d="M537,-520L586,-95L941,-156Z" fill="#aaa2cd" stroke="#aaa2cd" stroke-width="1.51"/><path d="M895,369L669,392L908,628Z" fill="#8c6ab0" stroke="#8c6ab0" stroke-width="1.51"/><path d="M669,392L525,616L908,628Z" fill="#8c6cb1" stroke="#8c6cb1" stroke-width="1.51"/><path d="M-127,-557L206,-433L537,-520Z" fill="#bfcee4" stroke="#bfcee4" stroke-width="1.51"/><path d="M537,-520L292,-197L586,-95Z" fill="#abb2d5" stroke="#abb2d5" stroke-width="1.51"/><path d="M525,616L220,1194L656,1122Z" fill="#8b5ca3" stroke="#8b5ca3" stroke-width="1.51"/><path d="M586,-95L129,213L669,392Z" fill="#919bc9" stroke="#919bc9" stroke-width="1.51"/><path d="M129,213L525,616L669,392Z" fill="#8d8ac0" stroke="#8d8ac0" stroke-width="1.51"/><path d="M100,620L220,1194L525,616Z" fill="#9174b5" stroke="#9174b5" stroke-width="1.51"/><path d="M129,213L100,620L525,616Z" fill="#9290c3" stroke="#9290c3" stroke-width="1.51"/><path d="M206,-433L292,-197L537,-520Z" fill="#b3c0dd" stroke="#b3c0dd" stroke-width="1.51"/><path d="M292,-197L129,213L586,-95Z" fill="#9cb0d4" stroke="#9cb0d4" stroke-width="1.51"/><path d="M-126,651L-130,1109L100,620Z" fill="#9f86bf" stroke="#9f86bf" stroke-width="1.51"/><path d="M100,620L-130,1109L220,1194Z" fill="#9976b0" stroke="#9976b0" stroke-width="1.51"/><path d="M206,-433L-216,-101L292,-197Z" fill="#b2c9e1" stroke="#b2c9e1" stroke-width="1.51"/><path d="M-216,-101L129,213L292,-197Z" fill="#a5c0dc" stroke="#a5c0dc" stroke-width="1.51"/><path d="M-127,-557L-216,-101L206,-433Z" fill="#c2d5e8" stroke="#c2d5e8" stroke-width="1.51"/><path d="M-281,371L100,620L129,213Z" fill="#9ca5ce" stroke="#9ca5ce" stroke-width="1.51"/><path d="M-281,371L-126,651L100,620Z" fill="#a19bc9" stroke="#a19bc9" stroke-width="1.51"/><path d="M-216,-101L-281,371L129,213Z" fill="#a7bcda" stroke="#a7bcda" stroke-width="1.51"/><path d="M-624,-462L-216,-101L-127,-557Z" fill="#d1e0ee" stroke="#d1e0ee" stroke-width="1.51"/><path d="M-281,371L-508,665L-126,651Z" fill="#aca2cd" stroke="#aca2cd" stroke-width="1.51"/><path d="M-512,1024L-130,1109L-126,651Z" fill="#a984ba" stroke="#a984ba" stroke-width="1.51"/><path d="M-508,665L-512,1024L-126,651Z" fill="#b093c6" stroke="#b093c6" stroke-width="1.51"/><path d="M-624,-462L-669,-108L-216,-101Z" fill="#d1e0ed" stroke="#d1e0ed" stroke-width="1.51"/><path d="M-633,349L-281,371L-216,-101Z" fill="#b3c3dd" stroke="#b3c3dd" stroke-width="1.51"/><path d="M-669,-108L-633,349L-216,-101Z" fill="#bfd4e7" stroke="#bfd4e7" stroke-width="1.51"/><path d="M-633,349L-508,665L-281,371Z" fill="#b5b1d5" stroke="#b5b1d5" stroke-width="1.51"/><path d="M-633,349L-512,1024L-508,665Z" fill="#b8a1ce" stroke="#b8a1ce" stroke-width="1.51"/></svg>