<svg xmlns="http://www.w3.org/2000/svg" width="800" height="800"><path d="M-419,-370L-93,-401L183,-470Z" fill="#dcf2d5" stroke="#dcf2d5" stroke-width="1.51"/><path d="M500,-467L860,-420L1167,-394Z" fill="#9ac3d3" stroke="#9ac3d3" stroke-width="1.51"/><path d="M891,1176L295,1274L1229,1162Z" fill="#2678b1" stroke="#2678b1" stroke-width="1.51"/><path d="M1172,-73L931,-13L1250,316Z" fill="#76a2b5" stroke="#76a2b5" stroke-width="1.51"/><path d="M931,-13L932,303L1250,316Z" fill="#6da5b6" stroke="#6da5b6" stroke-width="1.51"/><path d="M1167,-394L1172,-73L1250,316Z" fill="#7d9eb2" stroke="#7d9eb2" stroke-width="1.51"/><path d="M891,1176L1229,1162L1254,892Z" fill="#0e6aad" stroke="#0e6aad" stroke-width="1.51"/><path d="M798,920L891,1176L1254,892Z" fill="#207bb6" stroke="#207bb6" stroke-width="1.51"/><path d="M891,610L798,920L1254,892Z" fill="#2d8abd" stroke="#2d8abd" stroke-width="1.51"/><path d="M1250,316L932,303L1254,545Z" fill="#5497b6" stroke="#5497b6" stroke-width="1.51"/><path d="M932,303L891,610L1254,545Z" fill="#4d9cbf" stroke="#4d9cbf" stroke-width="1.51"/><path d="M891,610L1254,892L1254,545Z" fill="#3188bd" stroke="#3188bd" stroke-width="1.51"/><path d="M860,-420L931,-13L1167,-394Z" fill="#8eb5c7" stroke="#8eb5c7" stroke-width="1.51"/><path d="M1167,-394L931,-13L1172,-73Z" fill="#86aabe" stroke="#86aabe" stroke-width="1.51"/><path d="M569,310L512,515L891,610Z" fill="#5fbacd" stroke="#5fbacd" stroke-width="1.51"/><path d="M486,1142L295,1274L891,1176Z" fill="#3f89b6" stroke="#3f89b6" stroke-width="1.51"/><path d="M860,-420L605,-63L931,-13Z" fill="#91c2ca" stroke="#91c2ca" stroke-width="1.51"/><path d="M605,-63L569,310L931,-13Z" fill="#86c5c5" stroke="#86c5c5" stroke-width="1.51"/><path d="M931,-13L569,310L932,303Z" fill="#76b8bf" stroke="#76b8bf" stroke-width="1.51"/><path d="M569,310L891,610L932,303Z" fill="#5eb2c5" stroke="#5eb2c5" stroke-width="1.51"/><path d="M500,-467L605,-63L860,-420Z" fill="#9fd1d7" stroke="#9fd1d7" stroke-width="1.51"/><path d="M512,515L798,920L891,610Z" fill="#46a8cd" stroke="#46a8cd" stroke-width="1.51"/><path d="M798,920L486,1142L891,1176Z" fill="#3089be" stroke="#3089be" stroke-width="1.51"/><path d="M512,515L476,935L798,920Z" fill="#4aa9cb" stroke="#4aa9cb" stroke-width="1.51"/><path d="M476,935L486,1142L798,920Z" fill="#4198c3" stroke="#4198c3" stroke-width="1.51"/><path d="M229,884L476,935L512,515Z" fill="#5fb3c6" stroke="#5fb3c6" stroke-width="1.51"/><path d="M500,-467L160,-144L605,-63Z" fill="#abddcc" stroke="#abddcc" stroke-width="1.51"/><path d="M256,315L569,310L605,-63Z" fill="#8bcfc0" stroke="#8bcfc0" stroke-width="1.51"/><path d="M160,-144L256,315L605,-63Z" fill="#a2dabf" stroke="#a2dabf" stroke-width="1.51"/><path d="M183,-470L160,-144L500,-467Z" fill="#bce5ce" stroke="#bce5ce" stroke-width="1.51"/><path d="M189,544L229,884L512,515Z" fill="#72c2c8" stroke="#72c2c8" stroke-width="1.51"/><path d="M256,315L512,515L569,310Z" fill="#7acac5" stroke="#7acac5" stroke-width="1.51"/><path d="M476,935L229,884L486,1142Z" fill="#58a3bd" stroke="#58a3bd" stroke-width="1.51"/><path d="M256,315L189,544L512,515Z" fill="#80ccc4" stroke="#80ccc4" stroke-width="1.51"/><path d="M-6,1122L-342,1154L295,1274Z" fill="#7b9fb2" stroke="#7b9fb2" stroke-width="1.51"/><path d="M229,884L295,1274L486,1142Z" fill="#5c9cb8" stroke="#5c9cb8" stroke-width="1.51"/><path d="M189,544L-24,567L229,884Z" fill="#84c7c5" stroke="#84c7c5" stroke-width="1.51"/><path d="M160,-144L-21,201L256,315Z" fill="#addfb7" stroke="#addfb7" stroke-width="1.51"/><path d="M229,884L-6,1122L295,1274Z" fill="#6fa2b3" stroke="#6fa2b3" stroke-width="1.51"/><path d="M-93,-401L160,-144L183,-470Z" fill="#cbebcb" stroke="#cbebcb" stroke-width="1.51"/><path d="M-21,201L-24,567L189,544Z" fill="#99d6c1" stroke="#99d6c1" stroke-width="1.51"/><path d="M-75,933L-6,1122L229,884Z" fill="#7daebb" stroke="#7daebb" stroke-width="1.51"/><path d="M-24,567L-75,933L229,884Z" fill="#85bec2" stroke="#85bec2" stroke-width="1.51"/><path d="M-21,201L189,544L256,315Z" fill="#99d6bc" stroke="#99d6bc" stroke-width="1.51"/><path d="M-145,-23L-21,201L160,-144Z" fill="#bfe6bf" stroke="#bfe6bf" stroke-width="1.51"/><path d="M-93,-401L-145,-23L160,-144Z" fill="#cdecc8" stroke="#cdecc8" stroke-width="1.51"/><path d="M-330,819L-75,933L-24,567Z" fill="#92c4ca" stroke="#92c4ca" stroke-width="1.51"/><path d="M-327,532L-330,819L-24,567Z" fill="#9cd1d3" stroke="#9cd1d3" stroke-width="1.51"/><path d="M-327,532L-24,567L-21,201Z" fill="#a6dac8" stroke="#a6dac8" stroke-width="1.51"/><path d="M-426,279L-327,532L-21,201Z" fill="#b3e1ca" stroke="#b3e1ca" stroke-width="1.51"/><path d="M-75,933L-342,1154L-6,1122Z" fill="#86abbf" stroke="#86abbf" stroke-width="1.51"/><path d="M-419,-370L-145,-23L-93,-401Z" fill="#daf1d4" stroke="#daf1d4" stroke-width="1.51"/><path d="M-145,-23L-426,279L-21,201Z" fill="#c0e6c3" stroke="#c0e6c3" stroke-width="1.51"/><path d="M-419,-370L-455,-87L-145,-23Z" fill="#dbf1d4" stroke="#dbf1d4" stroke-width="1.51"/><path d="M-330,819L-342,1154L-75,933Z" fill="#8eb5c6" stroke="#8eb5c6" stroke-width="1.51"/><path d="M-455,-87L-426,279L-145,-23Z" fill="#cdeccc" stroke="#cdeccc" stroke-width="1.51"/><path d="M-426,279L-330,819L-327,532Z" fill="#a9d9d6" stroke="#a9d9d6" stroke-width="1.51"/><path d="M-426,279L-342,1154L-330,819Z" fill="#9ccad4" stroke="#9ccad4" stroke-width="1.51"/></svg>